# xmcd
#
# Track frame offsets: 
#        150
#        12614
#        28241
#        38894
#        62076
#        74249
#        87244
#        102399
#        113361
#        128156
#        138356
#        153964
#        170234
#        184416
#
# Disc length: 2640 seconds
#
# Revision: 0
# Processed by: cddbd v1.5.2PL0 Copyright (c) Steve Scherf et al.
# Submitted via: ExactAudioCopy v0.95b4
#
DISCID=cc0a4e0e
DTITLE=Hillary James - Bluesy
DYEAR=1999
DGENRE=Blues
TTITLE0=Travellin' Blues
TTITLE1=Hong Kong Blues
TTITLE2=Brady and Duncan
TTITLE3=Poor Wayfaring Stranger
TTITLE4=Fighting the Jug
TTITLE5=Double Crossin' Papa
TTITLE6=Melancholy Blues
TTITLE7=Me and My Chauffeur
TTITLE8=Meet Me Where They Play The Blues
TTITLE9=Ready for the River
TTITLE10=Blues in the Night
TTITLE11=One Black Rat
TTITLE12=Rising Sun Blues
TTITLE13=Ain't Nobody Here But Us Chickens
EXTD=
EXTT0=
EXTT1=
EXTT2=
EXTT3=
EXTT4=
EXTT5=
EXTT6=
EXTT7=
EXTT8=
EXTT9=
EXTT10=
EXTT11=
EXTT12=
EXTT13=
PLAYORDER=
